<?xml version="1.0" encoding="UTF-8"?>
<svg version="1.1" xmlns="http://www.w3.org/2000/svg" width="512" height="512">
<path d="M0 0 C3.26701612 2.66358727 6.39330111 5.45632415 9.50390625 8.30078125 C10.70273437 9.37585938 10.70273437 9.37585938 11.92578125 10.47265625 C23.25289034 21.15709249 31.22417267 34.17323423 37.50390625 48.30078125 C38.22707031 49.89986328 38.22707031 49.89986328 38.96484375 51.53125 C50.75297985 79.71561176 49.78417969 113.38067819 38.81640625 141.61328125 C32.8890274 155.96100438 24.95141975 167.8771497 14.50390625 179.30078125 C13.77558594 180.11160156 13.04726563 180.92242187 12.296875 181.7578125 C-6.3339004 201.49468217 -34.67518902 215.03797371 -61.83496094 216.4777832 C-98.33647574 217.12462592 -128.98710757 209.45605738 -156.49609375 184.30078125 C-157.2953125 183.5840625 -158.09453125 182.86734375 -158.91796875 182.12890625 C-170.24507784 171.44447001 -178.21636017 158.42832827 -184.49609375 144.30078125 C-184.97820312 143.23472656 -185.4603125 142.16867187 -185.95703125 141.0703125 C-197.77270331 112.82011476 -196.74954729 79.32356916 -185.80859375 51.05078125 C-179.89382335 36.66578291 -171.96274345 24.74676659 -161.49609375 13.30078125 C-160.779375 12.5015625 -160.06265625 11.70234375 -159.32421875 10.87890625 C-148.63978251 -0.44820284 -135.62364077 -8.41948517 -121.49609375 -14.69921875 C-120.43003906 -15.18132812 -119.36398438 -15.6634375 -118.265625 -16.16015625 C-80.20172443 -32.08041885 -32.37806739 -25.51961434 0 0 Z " fill="#FED048" transform="translate(329.49609375,159.69921875)"/>
<path d="M0 0 C5.50287074 3.20081605 9.71234816 7.4378835 14.171875 11.94140625 C14.93550354 12.70549301 15.69913208 13.46957977 16.48590088 14.25682068 C18.09177338 15.86570324 19.69522589 17.47700449 21.29638672 19.09057617 C23.75043147 21.56293469 26.21244163 24.02714016 28.67578125 26.49023438 C30.23745286 28.05681961 31.79866682 29.62386121 33.359375 31.19140625 C34.09581238 31.92895645 34.83224976 32.66650665 35.59100342 33.42640686 C36.27221252 34.11399582 36.95342163 34.80158478 37.65527344 35.51000977 C38.25450623 36.11305435 38.85373901 36.71609894 39.47113037 37.3374176 C43.19632341 41.38841074 43.51028768 44.25464343 43.36328125 49.546875 C43 52 43 52 41.125 55.125 C36.52992499 57.88204501 33.19712771 58.27206585 28 57 C25.83862305 55.48413086 25.83862305 55.48413086 23.63671875 53.40234375 C22.77071045 52.58733398 21.90470215 51.77232422 21.01245117 50.93261719 C20.00650805 49.95692305 19.00249775 48.97923382 18 48 C17.13974716 47.16414368 17.13974716 47.16414368 16.26211548 46.31140137 C12.32538678 42.47725907 8.42360134 38.60937447 4.53808594 34.72338867 C2.48130349 32.66882365 0.41660193 30.62243379 -1.6484375 28.57617188 C-2.96402929 27.26350936 -4.27915102 25.95037554 -5.59375 24.63671875 C-6.20827026 24.029384 -6.82279053 23.42204926 -7.45593262 22.79631042 C-8.0241272 22.22503922 -8.59232178 21.65376801 -9.17773438 21.06518555 C-9.92524963 20.31980782 -9.92524963 20.31980782 -10.68786621 19.55937195 C-13.73223482 15.9413697 -14.43449355 12.71987875 -14.328125 7.96875 C-13.80947233 4.85683396 -12.21445226 3.14932131 -10 1 C-6.83350487 -0.58324757 -3.42541806 -0.64374236 0 0 Z " fill="#FED049" transform="translate(368,354)"/>
<path d="M0 0 C2.8100346 1.79363911 4.50940468 3.01880935 6 6 C6.51256661 12.15079928 5.81068104 15.08386587 2 20 C-0.55198219 22.82082847 -3.23892572 25.4957956 -5.94140625 28.171875 C-6.70549301 28.93550354 -7.46957977 29.69913208 -8.25682068 30.48590088 C-9.86570324 32.09177338 -11.47700449 33.69522589 -13.09057617 35.29638672 C-15.56293469 37.75043147 -18.02714016 40.21244163 -20.49023438 42.67578125 C-22.05681961 44.23745286 -23.62386121 45.79866682 -25.19140625 47.359375 C-25.92895645 48.09581238 -26.66650665 48.83224976 -27.42640686 49.59100342 C-28.11399582 50.27221252 -28.80158478 50.95342163 -29.51000977 51.65527344 C-30.11305435 52.25450623 -30.71609894 52.85373901 -31.3374176 53.47113037 C-35.38841074 57.19632341 -38.25464343 57.51028768 -43.546875 57.36328125 C-46 57 -46 57 -49.125 55.125 C-51.88204501 50.52992499 -52.27206585 47.19712771 -51 42 C-49.48413086 39.83862305 -49.48413086 39.83862305 -47.40234375 37.63671875 C-46.58733398 36.77071045 -45.77232422 35.90470215 -44.93261719 35.01245117 C-43.95692305 34.00650805 -42.97923382 33.00249775 -42 32 C-41.44276245 31.42649811 -40.8855249 30.85299622 -40.31140137 30.26211548 C-36.47725907 26.32538678 -32.60937447 22.42360134 -28.72338867 18.53808594 C-26.66882365 16.48130349 -24.62243379 14.41660193 -22.57617188 12.3515625 C-21.26350936 11.03597071 -19.95037554 9.72084898 -18.63671875 8.40625 C-17.72571663 7.4844696 -17.72571663 7.4844696 -16.79631042 6.54406738 C-16.22503922 5.9758728 -15.65376801 5.40767822 -15.06518555 4.82226562 C-14.56826706 4.32392212 -14.07134857 3.82557861 -13.55937195 3.31213379 C-9.4954765 -0.10743173 -5.21664416 -0.86944069 0 0 Z " fill="#FECF49" transform="translate(152,354)"/>
<path d="M0 0 C3.36337088 2.01802253 4.56537386 3.42587329 5.609375 7.20703125 C6.02290941 11.06871284 5.74842352 13.93287269 3.48413086 17.16137695 C2.79714111 17.88800537 2.11015137 18.61463379 1.40234375 19.36328125 C0.58733398 20.22928955 -0.22767578 21.09529785 -1.06738281 21.98754883 C-2.04307695 22.99349195 -3.02076618 23.99750225 -4 25 C-4.83585632 25.86025284 -4.83585632 25.86025284 -5.68859863 26.73788452 C-9.52274093 30.67461322 -13.39062553 34.57639866 -17.27661133 38.46191406 C-19.33117635 40.51869651 -21.37756621 42.58339807 -23.42382812 44.6484375 C-24.73649064 45.96402929 -26.04962446 47.27915102 -27.36328125 48.59375 C-27.970616 49.20827026 -28.57795074 49.82279053 -29.20368958 50.45593262 C-29.77496078 51.0241272 -30.34623199 51.59232178 -30.93481445 52.17773438 C-31.68019218 52.92524963 -31.68019218 52.92524963 -32.44062805 53.68786621 C-36.0586303 56.73223482 -39.28012125 57.43449355 -44.03125 57.328125 C-47.14316604 56.80947233 -48.85067869 55.21445226 -51 53 C-52.58324757 49.83350487 -52.64374236 46.42541806 -52 43 C-48.79918395 37.49712926 -44.5621165 33.28765184 -40.05859375 28.828125 C-39.29450699 28.06449646 -38.53042023 27.30086792 -37.74317932 26.51409912 C-36.13429676 24.90822662 -34.52299551 23.30477411 -32.90942383 21.70361328 C-30.43706531 19.24956853 -27.97285984 16.78755837 -25.50976562 14.32421875 C-23.94318039 12.76254714 -22.37613879 11.20133318 -20.80859375 9.640625 C-19.70226845 8.53596893 -19.70226845 8.53596893 -18.57359314 7.40899658 C-17.5422097 6.38718292 -17.5422097 6.38718292 -16.48999023 5.34472656 C-15.88694565 4.74549377 -15.28390106 4.14626099 -14.6625824 3.52886963 C-10.06844377 -0.69578656 -5.98070867 -0.8856782 0 0 Z " fill="#FECF49" transform="translate(406,101)"/>
<path d="M0 0 C2.16137695 1.51586914 2.16137695 1.51586914 4.36328125 3.59765625 C5.22928955 4.41266602 6.09529785 5.22767578 6.98754883 6.06738281 C7.99349195 7.04307695 8.99750225 8.02076618 10 9 C10.57350189 9.55723755 11.14700378 10.1144751 11.73788452 10.68859863 C15.67461322 14.52274093 19.57639866 18.39062553 23.46191406 22.27661133 C25.51869651 24.33117635 27.58339807 26.37756621 29.6484375 28.42382812 C30.96402929 29.73649064 32.27915102 31.04962446 33.59375 32.36328125 C34.20827026 32.970616 34.82279053 33.57795074 35.45593262 34.20368958 C36.0241272 34.77496078 36.59232178 35.34623199 37.17773438 35.93481445 C37.67607788 36.43173294 38.17442139 36.92865143 38.68786621 37.44062805 C41.73223482 41.0586303 42.43449355 44.28012125 42.328125 49.03125 C41.80947233 52.14316604 40.21445226 53.85067869 38 56 C34.83350487 57.58324757 31.42541806 57.64374236 28 57 C22.49712926 53.79918395 18.28765184 49.5621165 13.828125 45.05859375 C12.68268219 43.91246361 12.68268219 43.91246361 11.51409912 42.74317932 C9.90822662 41.13429676 8.30477411 39.52299551 6.70361328 37.90942383 C4.24956853 35.43706531 1.78755837 32.97285984 -0.67578125 30.50976562 C-2.23745286 28.94318039 -3.79866682 27.37613879 -5.359375 25.80859375 C-6.09581238 25.07104355 -6.83224976 24.33349335 -7.59100342 23.57359314 C-8.27221252 22.88600418 -8.95342163 22.19841522 -9.65527344 21.48999023 C-10.25450623 20.88694565 -10.85373901 20.28390106 -11.47113037 19.6625824 C-15.19632341 15.61158926 -15.51028768 12.74535657 -15.36328125 7.453125 C-15 5 -15 5 -13.125 1.875 C-8.52992499 -0.88204501 -5.19712771 -1.27206585 0 0 Z " fill="#FED049" transform="translate(116,101)"/>
<path d="M0 0 C2.8100346 1.79363911 4.50940468 3.01880935 6 6 C6.11435007 7.42304953 6.16933276 8.85112204 6.19287109 10.27856445 C6.21696548 11.60553093 6.21696548 11.60553093 6.24154663 12.95930481 C6.28599715 17.00696052 6.32706141 21.05445222 6.35009766 25.10229492 C6.36665841 27.23717143 6.39394988 29.37199246 6.43212891 31.5065918 C6.48689333 34.5841143 6.50877113 37.66033711 6.5234375 40.73828125 C6.54610687 41.69052078 6.56877625 42.64276031 6.59213257 43.62385559 C6.57735221 48.26068485 6.5218524 50.31929732 3.62353516 54.09985352 C0.78351116 56.15679627 -0.53505443 56.67913977 -4 56.625 C-4.825 56.63789063 -5.65 56.65078125 -6.5 56.6640625 C-10.27140001 55.66228437 -11.61923469 54.09028752 -14 51 C-14.72953957 47.61345098 -14.67746892 44.29717764 -14.62890625 40.84375 C-14.63131821 39.86386108 -14.63373016 38.88397217 -14.63621521 37.87438965 C-14.63523755 35.80668076 -14.62186325 33.73894543 -14.59692383 31.67138672 C-14.56261383 28.51048667 -14.57626988 25.35238291 -14.59570312 22.19140625 C-14.58880445 20.17967563 -14.57913187 18.1679522 -14.56640625 16.15625 C-14.57136612 15.21342163 -14.57632599 14.27059326 -14.58143616 13.29919434 C-14.50477305 9.01776084 -14.39241019 6.63106579 -12.08959961 2.92773438 C-8.42827485 -0.44997567 -4.83284715 -0.69437459 0 0 Z " fill="#FED049" transform="translate(260,390)"/>
<path d="M0 0 C0.88464432 -0.01606293 1.76928864 -0.03212585 2.68074036 -0.04867554 C6.72839607 -0.09312606 10.77588777 -0.13419031 14.82373047 -0.15722656 C16.95860697 -0.17378732 19.09342801 -0.20107878 21.22802734 -0.23925781 C24.30554985 -0.29402224 27.38177265 -0.31590003 30.4597168 -0.33056641 C31.41195633 -0.35323578 32.36419586 -0.37590515 33.34529114 -0.39926147 C37.9821204 -0.38448111 40.04073286 -0.3289813 43.82128906 2.56933594 C45.87823181 5.40935994 46.40057532 6.72792552 46.34643555 10.19287109 C46.35932617 11.01787109 46.3722168 11.84287109 46.38549805 12.69287109 C45.38371992 16.46427111 43.81172307 17.81210578 40.72143555 20.19287109 C37.33488652 20.92241066 34.01861319 20.87034002 30.56518555 20.82177734 C29.58529663 20.8241893 28.60540771 20.82660126 27.5958252 20.8290863 C25.5281163 20.82810864 23.46038098 20.81473435 21.39282227 20.78979492 C18.23192222 20.75548492 15.07381846 20.76914098 11.9128418 20.78857422 C9.90111117 20.78167554 7.88938775 20.77200296 5.87768555 20.75927734 C4.93485718 20.76423721 3.99202881 20.76919708 3.02062988 20.77430725 C-1.26080361 20.69764414 -3.64749866 20.58528128 -7.35083008 18.2824707 C-10.360847 15.019713 -10.61192676 12.67522435 -10.5715332 8.23193359 C-10.11601479 5.06152542 -8.52540788 3.37363089 -6.27856445 1.19287109 C-3.96594742 0.03656258 -2.57544344 0.04246872 0 0 Z " fill="#FED049" transform="translate(400.278564453125,245.80712890625)"/>
<path d="M0 0 C0.97988892 -0.00241196 1.95977783 -0.00482391 2.96936035 -0.00730896 C5.03706924 -0.0063313 7.10480457 0.007043 9.17236328 0.03198242 C12.33326333 0.06629242 15.49136709 0.05263637 18.65234375 0.03320312 C20.66407437 0.0401018 22.6757978 0.04977438 24.6875 0.0625 C25.63032837 0.05754013 26.57315674 0.05258026 27.54455566 0.04747009 C31.82598916 0.1241332 34.21268421 0.23649606 37.91601562 2.53930664 C40.92603255 5.80206435 41.1771123 8.14655299 41.13671875 12.58984375 C40.68120033 15.76025192 39.09059343 17.44814645 36.84375 19.62890625 C34.53113297 20.78521477 33.14062898 20.77930863 30.56518555 20.82177734 C29.68054123 20.83784027 28.79589691 20.8539032 27.88444519 20.87045288 C23.83678948 20.9149034 19.78929778 20.95596766 15.74145508 20.97900391 C13.60657857 20.99556466 11.47175754 21.02285613 9.3371582 21.06103516 C6.2596357 21.11579958 3.18341289 21.13767738 0.10546875 21.15234375 C-0.84677078 21.17501312 -1.79901031 21.1976825 -2.78010559 21.22103882 C-7.41693485 21.20625846 -9.47554732 21.15075865 -13.25610352 18.25244141 C-15.31304627 15.41241741 -15.83538977 14.09385182 -15.78125 10.62890625 C-15.79414062 9.80390625 -15.80703125 8.97890625 -15.8203125 8.12890625 C-13.6330704 -0.10541695 -7.1433864 -0.10045149 0 0 Z " fill="#FECF49" transform="translate(81.15625,245.37109375)"/>
<path d="M0 0 C0.825 -0.01289062 1.65 -0.02578125 2.5 -0.0390625 C6.27140001 0.96271563 7.61923469 2.53471248 10 5.625 C10.72953957 9.01154902 10.67746892 12.32782236 10.62890625 15.78125 C10.63131821 16.76113892 10.63373016 17.74102783 10.63621521 18.75061035 C10.63523755 20.81831924 10.62186325 22.88605457 10.59692383 24.95361328 C10.56261383 28.11451333 10.57626988 31.27261709 10.59570312 34.43359375 C10.58880445 36.44532437 10.57913187 38.4570478 10.56640625 40.46875 C10.57136612 41.41157837 10.57632599 42.35440674 10.58143616 43.32580566 C10.50477305 47.60723916 10.39241019 49.99393421 8.08959961 53.69726562 C4.8268419 56.70728255 2.48235326 56.9583623 -1.9609375 56.91796875 C-5.13134567 56.46245033 -6.8192402 54.87184343 -9 52.625 C-10.15630852 50.31238297 -10.15040238 48.92187898 -10.19287109 46.34643555 C-10.20893402 45.46179123 -10.22499695 44.57714691 -10.24154663 43.66569519 C-10.28599715 39.61803948 -10.32706141 35.57054778 -10.35009766 31.52270508 C-10.36665841 29.38782857 -10.39394988 27.25300754 -10.43212891 25.1184082 C-10.48689333 22.0408857 -10.50877113 18.96466289 -10.5234375 15.88671875 C-10.54610687 14.93447922 -10.56877625 13.98223969 -10.59213257 13.00114441 C-10.57735221 8.36431515 -10.5218524 6.30570268 -7.62353516 2.52514648 C-4.78351116 0.46820373 -3.46494557 -0.05413977 0 0 Z " fill="#FECF49" transform="translate(256,65.375)"/>
</svg>
